# xmcd
#
# Track frame offsets: 
#        183
#        9233
#        21105
#        30443
#        42645
#        52510
#        63913
#        74953
#        87235
#        98718
#        112998
#        123228
#        135610
#        147535
#        159795
#        171180
#        181698
#        193358
#        204945
#        219758
#        230853
#        241808
#        255195
#        267093
#        281280
#        294218
#
# Disc length: 4074 seconds
#
# Revision: 0
# Processed by: cddbd v1.5.1PL0 Copyright (c) Steve Scherf et al.
# Submitted via: ExactAudioCopy v0.95b2
#
DISCID=5d0fe81a
DTITLE=Various Artist - Bayou Blues Blasters - Goldband Blues
DYEAR=1900
DGENRE=Blues
TTITLE0=Ivory Jackson - I'm A Country Boy
TTITLE1=Clarence Garlow - Purty Little Dolly
TTITLE2=Guitar Jr. - Going Crazy Baby
TTITLE3=Hop Wilson - Broke And Hungry
TTITLE4=Little Bob - Make Up My Mind
TTITLE5=Lazy Lester - Need Shorter Hours
TTITLE6=Lonesome Sundown - It Ain't Right
TTITLE7=Juke Boy Bonner  - Just Got To (Take A) Ride
TTITLE8=Al Smith - Wanna Do Me Wrong
TTITLE9=Jimmy Wilson - Tin Pan Alley
TTITLE10=Charles Sheffield - I Got Fever
TTITLE11=Tal Miller - Life's Journey
TTITLE12=Left Handed Charlie - Honey Bee
TTITLE13=Clarence Garlow - Sunday Morning
TTITLE14=Jimmy Wilson - Trouble In My Home
TTITLE15=Big Walter Price - Oh Ramona
TTITLE16=Elton Anderson - Highway Back Home
TTITLE17=Cookie and The Cupcakes - I'm Going
TTITLE18=Carol Fran - Please Stand By Me
TTITLE19=Elton Anderson - Too Tired
TTITLE20=Big Chenier - Let Me Hold Your Hand
TTITLE21=Katie Webster - What In The World Are You Gonna Do
TTITLE22=Rockin' Sidney - Something Working Baby
TTITLE23=Marcel Dugas and Wild Bill's Washboard Band - Pretty Little Red
TTITLE23=Dress
TTITLE24=Little Latour's Sulphur Playboys - C-Key Blues
TTITLE25=Thaddus Declouet - Catch That Morning Train
EXTD=
EXTT0=
EXTT1=
EXTT2=
EXTT3=
EXTT4=
EXTT5=
EXTT6=
EXTT7=
EXTT8=
EXTT9=
EXTT10=
EXTT11=
EXTT12=
EXTT13=
EXTT14=
EXTT15=
EXTT16=
EXTT17=
EXTT18=
EXTT19=
EXTT20=
EXTT21=
EXTT22=
EXTT23=
EXTT24=
EXTT25=
PLAYORDER=
